Coordinates
version=1
nRows=9
nColumns=42
inDegrees=yes

Units are S.I. units (second, meters, Newtons, ...)
If the header above contains a line with 'inDegrees', this indicates whether rotational values are in degrees (yes) or radians (no).

endheader
time	pelvis_tilt	pelvis_list	pelvis_rotation	pelvis_tx	pelvis_ty	pelvis_tz	hip_flexion_r	hip_adduction_r	hip_rotation_r	knee_angle_r	knee_adduction_r	knee_angle_r_beta	ankle_angle_r	subtalar_angle_r	mtp_angle_r	hip_flexion_l	hip_adduction_l	hip_rotation_l	knee_angle_l	knee_adduction_l	knee_angle_l_beta	ankle_angle_l	subtalar_angle_l	mtp_angle_l	lumbar_extension	lumbar_bending	lumbar_rotation	arm_flex_r	arm_add_r	arm_rot_r	elbow_flex_r	pro_sup_r	wrist_flex_r	wrist_dev_r	arm_flex_l	arm_add_l	arm_rot_l	elbow_flex_l	pro_sup_l	wrist_flex_l	wrist_dev_l
      1.20000000	     19.63068403	      3.55926701	      0.37297701	     -0.79784466	      0.89960432	     -0.06253734	      7.12505177	     -8.47975956	    -14.91612113	     61.84206036	     -6.00937280	      1.07934757	     14.75893703	    -13.41004490	     -7.67832965	    -13.01771318	      6.24946150	      0.94880561	     22.89373899	      4.07262883	      0.39957112	     21.96493617	      2.91476859	     -7.67832965	    -37.31808123	     -3.42027076	     -3.75704632	      4.95845044	     -4.12404865	    -24.28923367	     25.42647833	     90.00000001	      0.00000000	      0.00000000	     10.15472452	     -7.51513818	    -29.29210962	     34.40634552	     90.00000001	      0.00000000	      0.00000000
      1.21000000	     20.06740834	      3.38300060	      0.41694240	     -0.79032882	      0.90050790	     -0.06269618	      7.25903883	     -8.11794185	    -14.85121870	     59.39733584	     -5.61466128	      1.03667908	     13.97568610	    -14.35206383	     -7.66706365	    -14.57965965	      6.05516918	      0.97527508	     21.83600868	      3.96032935	      0.38111025	     22.48560008	      3.86323572	     -7.66706365	    -37.84857129	     -3.18873116	     -3.81411392	      5.00924517	     -3.86124907	    -27.81098557	     24.78402329	     90.00000001	      0.00000000	      0.00000000	     10.47618570	     -7.97174840	    -27.83111990	     34.45061719	     90.00000001	      0.00000000	      0.00000000
      1.22000000	     19.70630336	      3.55693759	      0.44610182	     -0.78328507	      0.89965122	     -0.06319020	      8.54783644	     -8.35929484	    -14.86007909	     57.47417211	     -5.24512691	      1.00311354	     13.91199763	    -14.08927938	     -7.66422164	    -14.78092228	      6.33533728	      0.71171121	     21.68825998	      3.69696719	      0.37853155	     22.77245775	      4.08232139	     -7.66422164	    -37.58526810	     -3.32224986	     -4.10971205	      4.59274317	     -3.87854050	    -27.97623086	     24.64470512	     90.00000001	      0.00000000	      0.00000000	     10.88539152	     -8.24224370	    -27.64307764	     34.56005420	     90.00000001	      0.00000000	      0.00000000
      1.23000000	     19.87750886	      3.50528650	      0.53704818	     -0.77597335	      0.89981005	     -0.06336478	      8.91421006	     -8.25576454	    -14.92220460	     55.05604745	     -4.76063875	      0.96090930	     13.20595515	    -14.65342563	     -7.65784411	    -15.78940525	      6.14471374	      0.25599422	     21.12594397	      3.70032048	      0.36871728	     23.34584588	      5.46816708	     -7.65784411	    -37.85663241	     -3.21998850	     -4.25474421	      4.31555677	     -3.83183465	    -29.13491417	     24.30223021	     90.00000001	      0.00000000	      0.00000000	     11.38607369	     -8.55726935	    -27.11602534	     34.48126538	     90.00000001	      0.00000000	      0.00000000
      1.24000000	     19.59055395	      3.62295937	      0.62816842	     -0.76883199	      0.89892741	     -0.06378189	      9.92525267	     -8.45140289	    -15.16168336	     52.91665737	     -4.40103621	      0.92356990	     13.08189085	    -14.66780435	     -7.65443534	    -16.06835786	      6.35049111	     -0.27192584	     21.00536078	      3.27185368	      0.36661271	     23.79823277	      5.96868382	     -7.65443534	    -37.65927012	     -3.28387294	     -4.49082461	      3.88652660	     -3.86343787	    -29.52072066	     24.14502502	     90.00000001	      0.00000000	      0.00000000	     11.80589667	     -8.81592419	    -26.85881193	     34.58293264	     90.00000001	      0.00000000	      0.00000000
      1.25000000	     19.69022967	      3.53001246	      0.78840492	     -0.76148641	      0.89880416	     -0.06392012	     10.20616726	     -8.29806705	    -15.42295438	     50.35357146	     -3.97904897	      0.87883561	     12.42663742	    -15.07351724	     -7.64921406	    -16.85953301	      6.08233397	     -1.10616919	     20.73342032	      3.14169587	      0.36186645	     24.51316086	      7.70712571	     -7.64921406	    -37.84526761	     -3.12382410	     -4.63011837	      3.56054718	     -3.85528581	    -30.51187338	     23.88108579	     90.00000001	      0.00000000	      0.00000000	     12.29800697	     -9.11696823	    -26.38859221	     34.51760548	     90.00000001	      0.00000000	      0.00000000
      1.26000000	     19.57264310	      3.39309539	      0.90960011	     -0.75417954	      0.89812792	     -0.06387935	     10.75301278	     -8.04805483	    -15.74328863	     47.83915075	     -3.71590333	      0.83495069	     11.88473624	    -15.14329872	     -7.64160730	    -17.20277810	      5.75805453	     -2.46632478	     20.88581183	      2.88024557	      0.36452618	     25.41269413	      9.90642439	     -7.64160730	    -37.80090666	     -2.96485430	     -4.68331345	      3.20502046	     -3.81618654	    -31.74633727	     23.75257227	     90.00000001	      0.00000000	      0.00000000	     12.69804421	     -9.36911943	    -25.94010352	     34.66372608	     90.00000001	      0.00000000	      0.00000000
      1.27000000	     19.02662156	      3.70815691	      0.96631892	     -0.74713216	      0.89650151	     -0.06399926	     12.05057816	     -8.55680760	    -16.07736223	     45.97357681	     -3.28488203	      0.80239028	     11.77683227	    -14.58502898	     -7.63968189	    -17.10849329	      5.99639794	     -3.00880723	     20.93168049	      2.86198053	      0.36532674	     25.48188468	      9.95486397	     -7.63968189	    -37.34930163	     -3.29336124	     -4.91416837	      2.63533997	     -3.80213131	    -31.77738835	     23.80359800	     90.00000001	      0.00000000	      0.00000000	     13.11358120	     -9.59505944	    -25.82901426	     34.97435219	     90.00000001	      0.00000000	      0.00000000
      1.28000000	     19.14404013	      3.31696066	      1.22861608	     -0.73963723	      0.89622711	     -0.06393348	     11.94329185	     -7.85731310	    -16.36504397	     42.92127832	     -3.02998592	      0.74911763	     11.12747149	    -14.90725957	     -7.62803987	    -17.58658187	      5.38884504	     -5.07753541	     21.33800334	      2.12392199	      0.37241841	     27.15217027	     13.90678939	     -7.62803987	    -37.51679228	     -2.80879717	     -4.95804248	      2.45206529	     -3.78501633	    -33.48599852	     23.45569519	     90.00000001	      0.00000000	      0.00000000	     13.55914644	     -9.84445834	    -25.31016953	     34.79751663	     90.00000001	      0.00000000	      0.00000000
